# xmcd
#
# Track frame offsets:
#	150
#	23172
#	39492
#	60242
#	83497
#	106500
#	123520
#	142835
#	162435
#	180772
#	201422
#
# Disc length: 3084 seconds
#
# Revision: 2
# Processed by: cddbd v1.5.1PL0 Copyright (c) Steve Scherf et al.
# Submitted via: dBpowerAMP V4.0
#
DISCID=7b0c0a0b
DTITLE=Strange Nature - World Song
DYEAR=1993
DGENRE=Blues
TTITLE0=New Messiah
TTITLE1=People
TTITLE2=Incantation Man
TTITLE3=Innocence
TTITLE4=Too Bad
TTITLE5=Compliments of the Earth
TTITLE6=Alive on You
TTITLE7=Abandoned
TTITLE8=Gone
TTITLE9=Walking on the Skies
TTITLE10=World Song
EXTD=74509-92970-22
EXTT0=
EXTT1=
EXTT2=
EXTT3=
EXTT4=
EXTT5=
EXTT6=
EXTT7=
EXTT8=
EXTT9=
EXTT10=
PLAYORDER=
